<svg width="69" height="69" viewBox="0 0 69 69" fill="none" xmlns="http://www.w3.org/2000/svg">
<circle cx="34.5" cy="34.5" r="34.5" fill="#FDF1CF"/>
<path d="M21 48C21 45.171 22.1238 42.4579 24.1242 40.4575C26.1246 38.4571 28.8377 37.3333 31.6667 37.3333C34.4956 37.3333 37.2088 38.4571 39.2091 40.4575C41.2095 42.4579 42.3333 45.171 42.3333 48H39.6667C39.6667 45.8783 38.8238 43.8434 37.3235 42.3431C35.8232 40.8429 33.7884 40 31.6667 40C29.5449 40 27.5101 40.8429 26.0098 42.3431C24.5095 43.8434 23.6667 45.8783 23.6667 48H21ZM31.6667 36C27.2467 36 23.6667 32.42 23.6667 28C23.6667 23.58 27.2467 20 31.6667 20C36.0867 20 39.6667 23.58 39.6667 28C39.6667 32.42 36.0867 36 31.6667 36ZM31.6667 33.3333C34.6133 33.3333 37 30.9467 37 28C37 25.0533 34.6133 22.6667 31.6667 22.6667C28.72 22.6667 26.3333 25.0533 26.3333 28C26.3333 30.9467 28.72 33.3333 31.6667 33.3333ZM42.712 38.2707C44.5858 39.1146 46.176 40.4817 47.2914 42.2076C48.4069 43.9336 49.0002 45.945 49 48H46.3333C46.3336 46.4586 45.8887 44.95 45.0521 43.6554C44.2155 42.3609 43.0228 41.3355 41.6173 40.7027L42.712 38.2707ZM41.7947 23.2173C43.138 23.7711 44.2866 24.7114 45.0947 25.919C45.9028 27.1266 46.3339 28.547 46.3333 30C46.3339 31.8298 45.6503 33.5936 44.4167 34.9451C43.1832 36.2966 41.4889 37.138 39.6667 37.304V34.62C40.6546 34.4785 41.5711 34.024 42.2817 33.3233C42.9923 32.6225 43.4596 31.7124 43.6149 30.7266C43.7702 29.7407 43.6053 28.7311 43.1445 27.8458C42.6837 26.9605 41.9513 26.2463 41.0547 25.808L41.7947 23.2173Z" fill="#4B3F3E"/>
</svg>
