<svg width="69" height="69" viewBox="0 0 69 69" fill="none" xmlns="http://www.w3.org/2000/svg">
<circle cx="34.5" cy="34.5" r="34.5" fill="#FBD9FF"/>
<mask id="mask0_1175_2" style="mask-type:luminance" maskUnits="userSpaceOnUse" x="23" y="23" width="23" height="23">
<path d="M42.6667 36.8333H26.3333C25.0447 36.8333 24 37.878 24 39.1666V42.6666C24 43.9553 25.0447 45 26.3333 45H42.6667C43.9553 45 45 43.9553 45 42.6666V39.1666C45 37.878 43.9553 36.8333 42.6667 36.8333Z" stroke="white" stroke-width="1.91667"/>
<path d="M32.1667 24.5833H26.3333C25.7145 24.5833 25.121 24.8291 24.6834 25.2667C24.2458 25.7043 24 26.2978 24 26.9166V30.4166C24 31.0355 24.2458 31.629 24.6834 32.0666C25.121 32.5041 25.7145 32.75 26.3333 32.75H32.1667" stroke="white" stroke-width="1.91667" stroke-linecap="round"/>
<path d="M40.3332 33.3333C42.9105 33.3333 44.9998 31.244 44.9998 28.6667C44.9998 26.0893 42.9105 24 40.3332 24C37.7558 24 35.6665 26.0893 35.6665 28.6667C35.6665 31.244 37.7558 33.3333 40.3332 33.3333Z" fill="white" stroke="white" stroke-width="1.91667"/>
<path d="M40.3335 30.4167C41.3 30.4167 42.0835 29.6332 42.0835 28.6667C42.0835 27.7002 41.3 26.9167 40.3335 26.9167C39.367 26.9167 38.5835 27.7002 38.5835 28.6667C38.5835 29.6332 39.367 30.4167 40.3335 30.4167Z" fill="black"/>
</mask>
<g mask="url(#mask0_1175_2)">
<path d="M20.5 20.5H48.5V48.5H20.5V20.5Z" fill="#4B3F3E"/>
</g>
</svg>
